# xmcd
#
# Track frame offsets: 
#        150
#        11307
#        31502
#        49695
#        68397
#        83217
#        103912
#        115355
#        127737
#        147715
#        165487
#        187087
#        205037
#        221152
#        238957
#        267015
#        279950
#        298875
#        309900
#        325457
#        340240
#
# Disc length: 4769 seconds
#
# Revision: 2
# Processed by: cddbd v1.5.2PL0 Copyright (c) Steve Scherf et al.
# Submitted via: ExactAudioCopyFreeDBPlugin 1.0
#
DISCID=33129f15
DTITLE=Murphey, Michael Martin - Ultimate Collection
DYEAR=2001
DGENRE=Country
TTITLE0=I Feel Good (I Feel Bad)
TTITLE1=Geronimo's Cadillac
TTITLE2=Natchez Trace
TTITLE3=Calico Silver
TTITLE4=Harbor For My Soul
TTITLE5=Boy From The Country
TTITLE6=What Am I Doing Hangin' Around?
TTITLE7=Backsliders Wine
TTITLE8=Drunken Lady Of The Morning
TTITLE9=Cosmic Cowboy Pt. 1
TTITLE10=Wildfire
TTITLE11=Carolina In The Pines
TTITLE12=Cherokee Fiddle
TTITLE13=Swans Against The Sun
TTITLE14=Renegade
TTITLE15=What's Forever For?
TTITLE16=Still Taking Chances
TTITLE17=Will It Be Love By Morning?
TTITLE18=A Long Line Of Love
TTITLE19=From The Word Go
TTITLE20=I'm Gonna Miss You, Girl
EXTD=
EXTT0=
EXTT1=
EXTT2=
EXTT3=
EXTT4=
EXTT5=
EXTT6=
EXTT7=
EXTT8=
EXTT9=
EXTT10=
EXTT11=
EXTT12=
EXTT13=
EXTT14=
EXTT15=
EXTT16=
EXTT17=
EXTT18=
EXTT19=
EXTT20=
PLAYORDER=
